<svg width="0" height="0" class="hidden">
  <symbol id="facebook" xmlns="http://www.w3.org/2000/svg" viewBox="0 0 22.75 22.75">
    <path id="Path_83" d="M22.419,10.592a2.677,2.677,0,0,0-2.038.659,2.018,2.018,0,0,0-.554,1.418v2.407a.382.382,0,0,0,.382.389h1.438a.8.8,0,0,1,.791.943v.053a.811.811,0,0,1-.8.659H20.2a.382.382,0,0,0-.382.382v6.871a.811.811,0,0,1-.824.811h-.2A.811.811,0,0,1,18,24.373V17.456a.376.376,0,0,0-.382-.382H16.194a.8.8,0,0,1-.8-.752h0a.8.8,0,0,1,.8-.8h1.457a.382.382,0,0,0,.382-.389V12.26a3.3,3.3,0,0,1,1.18-2.532,4.438,4.438,0,0,1,2.836-.5.811.811,0,0,1,.752.8S22.789,10.578,22.419,10.592Z" transform="translate(-5.406 -3.298)" fill="currentColor"></path>
    <path id="Path_84" d="M16.815,23H6.435A6.192,6.192,0,0,1,.25,16.815V6.435A6.192,6.192,0,0,1,6.435.25H16.815A6.192,6.192,0,0,1,23,6.435V16.815A6.192,6.192,0,0,1,16.815,23ZM6.435,1.9A4.543,4.543,0,0,0,1.9,6.435V16.815a4.543,4.543,0,0,0,4.537,4.537H16.815a4.543,4.543,0,0,0,4.537-4.537V6.435A4.543,4.543,0,0,0,16.815,1.9Z" transform="translate(-0.25 -0.25)" fill="currentColor"></path>
  </symbol>
  <symbol id="instagram" xmlns="http://www.w3.org/2000/svg" viewBox="0 0 22 22">
    <g id="Group_20">
      <path id="Path_79" d="M11,.162c-2.987,0-3.362.013-4.535.066a8.074,8.074,0,0,0-2.67.511A5.392,5.392,0,0,0,1.846,2.008,5.392,5.392,0,0,0,.577,3.956a8.074,8.074,0,0,0-.511,2.67C.013,7.8,0,8.174,0,11.162S.013,14.524.066,15.7a8.074,8.074,0,0,0,.511,2.67,5.392,5.392,0,0,0,1.269,1.948,5.392,5.392,0,0,0,1.948,1.269,8.075,8.075,0,0,0,2.67.511c1.173.054,1.548.066,4.535.066s3.362-.013,4.535-.066a8.074,8.074,0,0,0,2.67-.511,5.625,5.625,0,0,0,3.217-3.217,8.074,8.074,0,0,0,.511-2.67c.054-1.173.066-1.548.066-4.535s-.013-3.362-.066-4.535a8.074,8.074,0,0,0-.511-2.67,5.392,5.392,0,0,0-1.269-1.948A5.392,5.392,0,0,0,18.206.739a8.074,8.074,0,0,0-2.67-.511C14.362.174,13.988.162,11,.162Zm0,1.982c2.937,0,3.285.011,4.445.064a6.088,6.088,0,0,1,2.043.379,3.408,3.408,0,0,1,1.265.823,3.408,3.408,0,0,1,.823,1.265,6.086,6.086,0,0,1,.379,2.043c.053,1.16.064,1.508.064,4.445s-.011,3.285-.064,4.445a6.086,6.086,0,0,1-.379,2.043,3.643,3.643,0,0,1-2.088,2.088,6.086,6.086,0,0,1-2.043.379c-1.16.053-1.508.064-4.445.064s-3.285-.011-4.445-.064a6.086,6.086,0,0,1-2.043-.379,3.408,3.408,0,0,1-1.265-.823,3.408,3.408,0,0,1-.823-1.265,6.086,6.086,0,0,1-.379-2.043c-.053-1.16-.064-1.508-.064-4.445s.011-3.285.064-4.445a6.086,6.086,0,0,1,.379-2.043,3.408,3.408,0,0,1,.823-1.265,3.409,3.409,0,0,1,1.265-.823,6.088,6.088,0,0,1,2.043-.379C7.715,2.155,8.063,2.144,11,2.144Z" transform="translate(0 -0.162)" fill="currentColor"></path>
      <path id="Path_80" d="M130.189,134.017a3.667,3.667,0,1,1,3.667-3.667A3.667,3.667,0,0,1,130.189,134.017Zm0-9.315a5.649,5.649,0,1,0,5.649,5.649A5.649,5.649,0,0,0,130.189,124.7Z" transform="translate(-119.189 -119.351)" fill="currentColor"></path>
    </g>
    <path id="Path_81" d="M364.572,90.109a1.32,1.32,0,1,1-1.32-1.32A1.32,1.32,0,0,1,364.572,90.109Z" transform="translate(-346.38 -84.98)" fill="currentColor"></path>
  </symbol>
  <symbol id="location" xmlns="http://www.w3.org/2000/svg" viewBox="0 0 15 15">
    <g id="Location" transform="translate(2.188 1.25)">
      <path id="Location-2" fill="currentColor" d="M4.7,12.3l-.038-.03L4.4,12.1a12.974,12.974,0,0,1-2.834-2.66l-.2-.258A6.688,6.688,0,0,1,0,5.329l0-.178A5.32,5.32,0,0,1,5.312,0H5.33l.16,0a5.322,5.322,0,0,1,5.135,5.343V5.41A7.555,7.555,0,0,1,8.3,10.342,13.232,13.232,0,0,1,5.96,12.276l-.031.026a1.055,1.055,0,0,1-1.232,0ZM5.177.951A4.374,4.374,0,0,0,.946,5.312l.012.223A5.742,5.742,0,0,0,2.123,8.607a11.981,11.981,0,0,0,3.064,2.878l.051.039a.113.113,0,0,0,.149,0l.053-.04a12.261,12.261,0,0,0,2.177-1.8A6.624,6.624,0,0,0,9.68,5.4l0-.208A4.374,4.374,0,0,0,5.327.948ZM3.288,5.406a2.024,2.024,0,1,1,2.024,2.03A2.029,2.029,0,0,1,3.288,5.406Zm.946,0A1.078,1.078,0,1,0,5.312,4.324,1.081,1.081,0,0,0,4.234,5.406Z"></path>
    </g>
  </symbol>
  <symbol id="message" xmlns="http://www.w3.org/2000/svg" viewBox="0 0 25.625 25.625">
    <g id="Message" fill="currentColor" transform="translate(2.135 3.203)">
      <path id="Message-2"  d="M5.825,19.219a5.6,5.6,0,0,1-4.181-1.808A6.524,6.524,0,0,1,0,12.963V6.256A6.524,6.524,0,0,1,1.644,1.808,5.6,5.6,0,0,1,5.825,0h9.683a5.932,5.932,0,0,1,5.836,6.256l0,6.659a6,6,0,0,1-1.576,4.411A5.934,5.934,0,0,1,15.5,19.219ZM1.62,6.256v6.707c0,2.679,1.768,4.624,4.205,4.624H15.49a4.3,4.3,0,0,0,3.09-1.374,4.368,4.368,0,0,0,1.144-3.25V6.208a4.357,4.357,0,0,0-1.144-3.2,4.3,4.3,0,0,0-3.09-1.374H5.825C3.388,1.632,1.62,3.577,1.62,6.256Zm7.33,4.568L8.778,10.7,4.364,7.17a.821.821,0,0,1-.131-1.146.806.806,0,0,1,1.039-.2l.1.067L9.78,9.415a1.47,1.47,0,0,0,1.687.094l.126-.087,4.377-3.529a.805.805,0,0,1,1.138.127.821.821,0,0,1-.037,1.065l-.088.082L12.6,10.7a3.086,3.086,0,0,1-3.648.122Z" fill="#currentColor"></path>
    </g>
  </symbol>
  <symbol id="telegram" xmlns="http://www.w3.org/2000/svg" viewBox="0 0 24 24">
    <g id="Send" transform="translate(2.249 2.249)">
      <path id="Send-2" d="M12.925,19.5a1.88,1.88,0,0,1-1.548-.8l-.088-.133-3.9-6.455L.918,8.131a1.933,1.933,0,0,1,.319-3.448l.151-.049L17.045.078A1.95,1.95,0,0,1,17.587,0a1.93,1.93,0,0,1,1.868,2.342l-.036.14-4.645,15.64A1.916,1.916,0,0,1,12.925,19.5Zm.681-14.379a.743.743,0,0,1,.444.145l.085.072a.755.755,0,0,1,.076.976l-.072.085L8.885,11.687,12.573,17.8a.41.41,0,0,0,.358.205.417.417,0,0,0,.374-.228l.031-.076,4.645-15.64a.429.429,0,0,0-.066-.382.422.422,0,0,0-.336-.172l-.043,0-.073.014L1.807,6.074a.419.419,0,0,0-.294.312.432.432,0,0,0,.126.418l.066.049,6.125,3.769,5.245-5.279A.747.747,0,0,1,13.606,5.122Z" fill="currentColor"></path>
    </g>
  </symbol>
  <symbol id="twitter" xmlns="http://www.w3.org/2000/svg" viewBox="0 0 22.082 22.082">
    <g id="iconfinder_yumminky-social-media-12_2083211_1_">
      <path id="Path_87" d="M17.942,1.38A2.76,2.76,0,0,1,20.7,4.14v13.8a2.76,2.76,0,0,1-2.76,2.76H4.14a2.76,2.76,0,0,1-2.76-2.76V4.14A2.76,2.76,0,0,1,4.14,1.38h13.8m0-1.38H4.14A4.152,4.152,0,0,0,0,4.14v13.8a4.152,4.152,0,0,0,4.14,4.14h13.8a4.152,4.152,0,0,0,4.14-4.14V4.14A4.152,4.152,0,0,0,17.942,0Z" fill="currentColor"></path>
    </g>
    <g id="Group_25" transform="translate(4.368 6.182)">
      <g id="Group_23">
        <path id="Path_86" d="M9.091,16.881a7.418,7.418,0,0,1-4.111-1.188.439.439,0,0,1-.183-.548c.091-.183.274-.365.457-.274a4.542,4.542,0,0,0,2.467-.365,2.893,2.893,0,0,1-1.553-1.736c-.091-.183,0-.274.091-.457a2.918,2.918,0,0,1-1-2.193c0-.183.091-.365.183-.365a.089.089,0,0,0,.091-.091,7.052,7.052,0,0,1-.183-1.37A3.83,3.83,0,0,1,5.71,6.831c.091-.183.183-.274.365-.274a.475.475,0,0,1,.365.183,6.784,6.784,0,0,0,4.294,2.375V9.024A2.944,2.944,0,0,1,13.659,6.1a3.193,3.193,0,0,1,2.01.731,4.589,4.589,0,0,0,1.188-.457.582.582,0,0,1,.548,0c.183.091.183.274.183.457A.693.693,0,0,1,17.4,7.2a.5.5,0,0,1,.457.183c.091.183.183.365,0,.548a7.89,7.89,0,0,1-1.188,1.279V9.3A7.5,7.5,0,0,1,9.091,16.881ZM7.081,15.6a7.125,7.125,0,0,0,2.01.274A6.561,6.561,0,0,0,15.76,9.3V9.024a.475.475,0,0,1,.183-.365.089.089,0,0,0,.091-.091.5.5,0,0,1-.457-.274.4.4,0,0,1,.091-.457h-.091a.824.824,0,0,1-.457-.091,2.156,2.156,0,0,0-1.462-.64,2.028,2.028,0,0,0-2.01,2.01.824.824,0,0,0,.091.457c0,.183,0,.274-.091.365a.693.693,0,0,1-.365.183A7.906,7.906,0,0,1,6.258,7.927v.365a2.041,2.041,0,0,0,.914,1.645.439.439,0,0,1,.183.548c-.091.183-.274.365-.457.274a1.159,1.159,0,0,1-.548-.091A2.025,2.025,0,0,0,7.9,11.947a.418.418,0,0,1,.365.457.466.466,0,0,1-.365.457c-.183,0-.274.091-.457.091A1.951,1.951,0,0,0,9,13.683a.5.5,0,0,1,.457.274c.091.183,0,.365-.183.548A4.177,4.177,0,0,1,7.081,15.6Z" transform="translate(-4.761 -6.1)" fill="currentColor"></path>
      </g>
    </g>
  </symbol>
  <symbol id="call" xmlns="http://www.w3.org/2000/svg" viewBox="0 0 11.669 11.667">
    <path fill="currentColor" id="Call-2" d="M9,11.667H9a3.187,3.187,0,0,1-1.33-.332A14.936,14.936,0,0,1,3.45,8.22a14.363,14.363,0,0,1-3.108-4.2L.281,3.877a2.27,2.27,0,0,1,.065-2.32A3.415,3.415,0,0,1,2.566,0h.06a1.311,1.311,0,0,1,.813.414A8.857,8.857,0,0,1,4.962,2.535,1.415,1.415,0,0,1,4.694,3.65l-.064.113c-.117.215-.14.308-.1.416A5.211,5.211,0,0,0,7.475,7.135a.317.317,0,0,0,.11.021.874.874,0,0,0,.4-.16l.145-.082a1.465,1.465,0,0,1,.736-.236,1.317,1.317,0,0,1,.27.03,8.851,8.851,0,0,1,2.118,1.524,1.31,1.31,0,0,1,.415.834,3.335,3.335,0,0,1-1.527,2.241A1.925,1.925,0,0,1,9,11.667ZM2.555.853h.007l-.051,0A3.13,3.13,0,0,0,1.055,2.029L1.01,2.1a1.67,1.67,0,0,0,.115,1.581l.061.142A14.294,14.294,0,0,0,4.137,7.7,13.989,13.989,0,0,0,8.01,10.553l.124.055a2.185,2.185,0,0,0,.847.2,1.17,1.17,0,0,0,.7-.22l.029-.019a4.432,4.432,0,0,0,.629-.6,1.663,1.663,0,0,0,.478-.856.542.542,0,0,0-.174-.287A11.457,11.457,0,0,0,8.961,7.543a.351.351,0,0,0-.073-.008.97.97,0,0,0-.443.181L8.3,7.8a1.463,1.463,0,0,1-.7.219,1.249,1.249,0,0,1-.428-.083A6.072,6.072,0,0,1,3.732,4.486a1.3,1.3,0,0,1,.2-1.226L4,3.144c.123-.223.152-.32.128-.435A11.51,11.51,0,0,0,2.842,1.026.545.545,0,0,0,2.555.853Z" transform="translate(0 0)"></path>
  </symbol>
</svg>