<svg xmlns="http://www.w3.org/2000/svg" width="27" height="5939.5" viewBox="0 0 27 5939.5">
  <g id="Group_88" data-name="Group 88" transform="translate(-755 -41.5)">
    <path id="Path_75" data-name="Path 75" d="M0,0V5939.5" transform="translate(768.5 41.5)" fill="none" stroke="#73b894" stroke-width="1" opacity="0.35"/>
    <circle id="Ellipse_1" data-name="Ellipse 1" cx="5" cy="5" r="5" transform="translate(764 406)" fill="#73b894"/>
    <g id="Group_90" data-name="Group 90" transform="translate(756 521.908)">
      <circle id="Ellipse_5" data-name="Ellipse 5" cx="5" cy="5" r="5" transform="translate(8 8.092)" fill="#73b894"/>
      <g id="Ellipse_6" data-name="Ellipse 6" transform="translate(4 4.092)" fill="none" stroke="#73b894" stroke-width="0.5">
        <circle cx="9" cy="9" r="9" stroke="none"/>
        <circle cx="9" cy="9" r="8.75" fill="none"/>
      </g>
      <g id="Ellipse_7" data-name="Ellipse 7" transform="translate(0 0.092)" fill="none" stroke="#73b894" stroke-width="0.5" opacity="0.5">
        <circle cx="13" cy="13" r="13" stroke="none"/>
        <circle cx="13" cy="13" r="12.75" fill="none"/>
      </g>
    </g>
    <g id="Group_115" data-name="Group 115" transform="translate(0 719)">
      <circle id="Ellipse_5-2" data-name="Ellipse 5" cx="5" cy="5" r="5" transform="translate(764 938)" fill="#73b894"/>
      <g id="Ellipse_6-2" data-name="Ellipse 6" transform="translate(760 934)" fill="none" stroke="#73b894" stroke-width="0.5">
        <circle cx="9" cy="9" r="9" stroke="none"/>
        <circle cx="9" cy="9" r="8.75" fill="none"/>
      </g>
      <g id="Ellipse_7-2" data-name="Ellipse 7" transform="translate(756 930)" fill="none" stroke="#73b894" stroke-width="0.5" opacity="0.5">
        <circle cx="13" cy="13" r="13" stroke="none"/>
        <circle cx="13" cy="13" r="12.75" fill="none"/>
      </g>
    </g>
    <g id="Group_103" data-name="Group 103" transform="translate(756 2301.281)">
      <circle id="Ellipse_5-3" data-name="Ellipse 5" cx="5" cy="5" r="5" transform="translate(8 7.719)" fill="#73b894"/>
      <g id="Ellipse_6-3" data-name="Ellipse 6" transform="translate(4 3.719)" fill="none" stroke="#73b894" stroke-width="0.5">
        <circle cx="9" cy="9" r="9" stroke="none"/>
        <circle cx="9" cy="9" r="8.75" fill="none"/>
      </g>
      <g id="Ellipse_7-3" data-name="Ellipse 7" transform="translate(0 -0.281)" fill="none" stroke="#73b894" stroke-width="0.5" opacity="0.5">
        <circle cx="13" cy="13" r="13" stroke="none"/>
        <circle cx="13" cy="13" r="12.75" fill="none"/>
      </g>
    </g>
    <g id="Group_116" data-name="Group 116" transform="translate(0 1695)">
      <circle id="Ellipse_5-4" data-name="Ellipse 5" cx="5" cy="5" r="5" transform="translate(764 938)" fill="#73b894"/>
      <g id="Ellipse_6-4" data-name="Ellipse 6" transform="translate(760 934)" fill="none" stroke="#73b894" stroke-width="0.5">
        <circle cx="9" cy="9" r="9" stroke="none"/>
        <circle cx="9" cy="9" r="8.75" fill="none"/>
      </g>
      <g id="Ellipse_7-4" data-name="Ellipse 7" transform="translate(756 930)" fill="none" stroke="#73b894" stroke-width="0.5" opacity="0.5">
        <circle cx="13" cy="13" r="13" stroke="none"/>
        <circle cx="13" cy="13" r="12.75" fill="none"/>
      </g>
    </g>
    <g id="Group_117" data-name="Group 117" transform="translate(0 2604)">
      <circle id="Ellipse_5-5" data-name="Ellipse 5" cx="5" cy="5" r="5" transform="translate(764 938)" fill="#73b894"/>
      <g id="Ellipse_6-5" data-name="Ellipse 6" transform="translate(760 934)" fill="none" stroke="#73b894" stroke-width="0.5">
        <circle cx="9" cy="9" r="9" stroke="none"/>
        <circle cx="9" cy="9" r="8.75" fill="none"/>
      </g>
      <g id="Ellipse_7-5" data-name="Ellipse 7" transform="translate(756 930)" fill="none" stroke="#73b894" stroke-width="0.5" opacity="0.5">
        <circle cx="13" cy="13" r="13" stroke="none"/>
        <circle cx="13" cy="13" r="12.75" fill="none"/>
      </g>
    </g>
    <g id="Group_118" data-name="Group 118" transform="translate(0 3141)">
      <circle id="Ellipse_5-6" data-name="Ellipse 5" cx="5" cy="5" r="5" transform="translate(764 938)" fill="#73b894"/>
      <g id="Ellipse_6-6" data-name="Ellipse 6" transform="translate(760 934)" fill="none" stroke="#73b894" stroke-width="0.5">
        <circle cx="9" cy="9" r="9" stroke="none"/>
        <circle cx="9" cy="9" r="8.75" fill="none"/>
      </g>
      <g id="Ellipse_7-6" data-name="Ellipse 7" transform="translate(756 930)" fill="none" stroke="#73b894" stroke-width="0.5" opacity="0.5">
        <circle cx="13" cy="13" r="13" stroke="none"/>
        <circle cx="13" cy="13" r="12.75" fill="none"/>
      </g>
    </g>
    <g id="Group_163" data-name="Group 163" transform="translate(-1 3880)">
      <circle id="Ellipse_5-7" data-name="Ellipse 5" cx="5" cy="5" r="5" transform="translate(764 938)" fill="#73b894"/>
      <g id="Ellipse_6-7" data-name="Ellipse 6" transform="translate(760 934)" fill="none" stroke="#73b894" stroke-width="0.5">
        <circle cx="9" cy="9" r="9" stroke="none"/>
        <circle cx="9" cy="9" r="8.75" fill="none"/>
      </g>
      <g id="Ellipse_7-7" data-name="Ellipse 7" transform="translate(756 930)" fill="none" stroke="#73b894" stroke-width="0.5" opacity="0.5">
        <circle cx="13" cy="13" r="13" stroke="none"/>
        <circle cx="13" cy="13" r="12.75" fill="none"/>
      </g>
    </g>
    <g id="Group_166" data-name="Group 166" transform="translate(0 4801)">
      <circle id="Ellipse_5-8" data-name="Ellipse 5" cx="5" cy="5" r="5" transform="translate(764 938)" fill="#73b894"/>
      <g id="Ellipse_6-8" data-name="Ellipse 6" transform="translate(760 934)" fill="none" stroke="#73b894" stroke-width="0.5">
        <circle cx="9" cy="9" r="9" stroke="none"/>
        <circle cx="9" cy="9" r="8.75" fill="none"/>
      </g>
      <g id="Ellipse_7-8" data-name="Ellipse 7" transform="translate(756 930)" fill="none" stroke="#73b894" stroke-width="0.5" opacity="0.5">
        <circle cx="13" cy="13" r="13" stroke="none"/>
        <circle cx="13" cy="13" r="12.75" fill="none"/>
      </g>
    </g>
  </g>
</svg>
